<?xml version="1.0" encoding="UTF-8"?>
<svg xmlns="http://www.w3.org/2000/svg" viewBox="0 0 720 180" width="720" height="180" preserveAspectRatio="xMidYMid meet">
  <g id="strokes">
    <path d="M 173 63 L 169 63 L 167 63 L 164 64 L 161 66 L 164 64 L 167 63 L 164 64 L 161 66 L 160 68 L 159 71 L 158 75 L 158 78 L 159 75 L 159 71 L 160 68 L 159 71 L 158 75 L 158 78 L 158 80 L 158 82 L 158 84 L 158 87 L 158 89 L 158 91 L 158 93 L 159 95 L 159 91 L 158 88 L 158 85 L 158 82 L 158 84 L 158 87 L 158 89 L 158 91 L 158 93 L 159 95 L 161 97 L 162 100 L 165 103 L 168 105 L 165 102 L 163 100 L 161 97 L 162 100 L 165 103 L 168 105 L 169 106 L 172 107 L 174 107 L 176 107 L 173 107 L 169 106 L 172 107 L 174 107 L 176 107 L 179 107 L 182 106 L 184 105 L 186 103 L 184 105 L 181 106 L 179 107 L 182 106 L 184 105 L 186 103 L 188 101 L 189 99 L 191 96 L 192 92 L 190 95 L 189 98 L 188 101 L 189 99 L 191 96 L 192 92 L 192 89 L 192 87 L 192 84 L 192 81 L 192 84 L 192 87 L 192 89 L 192 87 L 192 84 L 192 81 L 192 79 L 191 76 L 190 74 L 189 72 L 190 75 L 191 77 L 192 79 L 191 76 L 190 74 L 189 72 L 187 71 L 184 69 L 182 67 L 179 66 L 182 67 L 184 69 L 187 71 L 184 69 L 182 67 L 179 66 L 177 65 L 174 65 L 171 65 L 174 65 L 177 65 L 174 65 L 171 65 L 169 68 L 168 71 L 169 69 L 170 66 L 169 68 L 168 71" fill="none" stroke="#2E2E2E" stroke-width="10" stroke-linecap="round" stroke-linejoin="round"/>
    <path d="M 205 41 L 207 43 L 208 46 L 209 49 L 210 52 L 211 54 L 209 51 L 208 47 L 207 44 L 208 46 L 209 49 L 210 52 L 211 54 L 211 56 L 212 59 L 213 62 L 213 65 L 214 68 L 215 72 L 216 75 L 217 78 L 216 75 L 215 72 L 215 68 L 214 65 L 213 62 L 212 59 L 213 62 L 213 65 L 214 68 L 215 72 L 216 75 L 217 78 L 218 81 L 219 84 L 219 88 L 220 91 L 220 93 L 221 96 L 222 98 L 222 100 L 221 97 L 221 94 L 220 91 L 219 87 L 219 84 L 219 88 L 220 91 L 220 93 L 221 96 L 222 98 L 222 100 L 222 102 L 223 104 L 224 108 L 224 111 L 226 114 L 225 110 L 224 107 L 223 104 L 224 108 L 224 111 L 226 114 L 226 117 L 227 119 L 227 119" fill="none" stroke="#2E2E2E" stroke-width="10" stroke-linecap="round" stroke-linejoin="round"/>
    <path d="M 222 83 L 223 81 L 225 80 L 223 81 L 225 80 L 228 79 L 231 78 L 228 79 L 231 78 L 234 77 L 236 77 L 239 76 L 236 77 L 234 77 L 236 77 L 239 76 L 240 76" fill="none" stroke="#2E2E2E" stroke-width="10" stroke-linecap="round" stroke-linejoin="round"/>
    <path d="M 256 56 L 258 55 L 260 54 L 263 53 L 260 54 L 263 53 L 267 53 L 270 53 L 267 53 L 270 53 L 274 52 L 278 52 L 281 51 L 277 52 L 274 52 L 278 52 L 281 51 L 283 50 L 286 51 L 286 52" fill="none" stroke="#2E2E2E" stroke-width="10" stroke-linecap="round" stroke-linejoin="round"/>
    <path d="M 267 59 L 266 61 L 265 65 L 265 67 L 265 69 L 265 66 L 265 63 L 265 67 L 265 69 L 265 72 L 265 75 L 265 78 L 266 81 L 265 78 L 265 75 L 265 72 L 265 75 L 265 78 L 266 81 L 266 84 L 267 86 L 267 88 L 269 90 L 267 87 L 266 84 L 267 86 L 267 88 L 269 90 L 271 93 L 273 93 L 271 92 L 270 91 L 271 93 L 273 93 L 276 93 L 280 92 L 277 93 L 275 93 L 278 93 L 280 92 L 282 91 L 283 89 L 285 88 L 287 87 L 284 89 L 282 91 L 283 89 L 285 88 L 287 87 L 289 85 L 290 84 L 292 83 L 289 85 L 290 84 L 292 83 L 294 81 L 297 80 L 294 81 L 297 80 L 298 80" fill="none" stroke="#2E2E2E" stroke-width="10" stroke-linecap="round" stroke-linejoin="round"/>
    <path d="M 315 42 L 313 44 L 312 47 L 312 49 L 313 52 L 313 54 L 314 56 L 313 53 L 313 50 L 312 47 L 312 49 L 313 52 L 313 54 L 314 56 L 314 58 L 315 61 L 316 63 L 316 66 L 316 68 L 317 71 L 317 73 L 318 75 L 317 72 L 317 69 L 316 66 L 316 64 L 315 61 L 316 63 L 316 66 L 316 68 L 317 71 L 317 73 L 318 75 L 318 77 L 319 79 L 320 82 L 321 85 L 322 88 L 321 85 L 320 82 L 319 79 L 320 82 L 321 85 L 322 88 L 324 91 L 325 93 L 324 91 L 322 89 L 325 92 L 326 93 L 326 94" fill="none" stroke="#2E2E2E" stroke-width="10" stroke-linecap="round" stroke-linejoin="round"/>
    <path d="M 321 66 L 322 65 L 325 64 L 327 63 L 325 64 L 322 65 L 325 64 L 327 63 L 329 62 L 331 61 L 333 60 L 329 62 L 331 61 L 333 60 L 335 60" fill="none" stroke="#2E2E2E" stroke-width="10" stroke-linecap="round" stroke-linejoin="round"/>
    <path d="M 303 115 L 301 116 L 299 118 L 299 120 L 299 125 L 299 122 L 299 119 L 299 122 L 299 125 L 299 128 L 300 132 L 301 134 L 301 136 L 302 138 L 302 140 L 302 137 L 301 134 L 300 131 L 299 128 L 300 132 L 301 134 L 301 136 L 302 138 L 302 140 L 303 142 L 304 144 L 304 146 L 305 148 L 306 150 L 306 153 L 308 155 L 307 153 L 306 150 L 305 147 L 304 144 L 304 146 L 305 148 L 306 150 L 306 153 L 308 155 L 309 157 L 311 159 L 313 160 L 315 160 L 312 159 L 309 157 L 311 159 L 313 160 L 315 160 L 318 160 L 321 159 L 322 158 L 320 159 L 317 160 L 321 159 L 322 158 L 324 157 L 326 155 L 328 154 L 324 157 L 326 155 L 328 154 L 330 153 L 333 151 L 330 153 L 333 151 L 336 150 L 339 149 L 336 150 L 339 149 L 343 148 L 345 147 L 343 148 L 345 147 L 347 146 L 348 143 L 347 146 L 348 143 L 349 140 L 349 143 L 349 140 L 348 138 L 348 135 L 348 137 L 349 139 L 348 137 L 347 134 L 345 130 L 345 127 L 346 130 L 347 134 L 345 130 L 345 127 L 344 124 L 343 122 L 342 119 L 341 116 L 342 119 L 343 122 L 344 124 L 343 122 L 342 119 L 341 116 L 340 114 L 340 111 L 340 114 L 340 111 L 338 109" fill="none" stroke="#2E2E2E" stroke-width="10" stroke-linecap="round" stroke-linejoin="round"/>
    <path d="M 317 136 L 314 136 L 317 135 L 318 134 L 317 135 L 315 136 L 317 135 L 318 134 L 320 133 L 322 132 L 325 130 L 327 129 L 325 130 L 322 132 L 320 133 L 322 132 L 325 130 L 327 129 L 330 127 L 333 126 L 330 127 L 333 126" fill="none" stroke="#2E2E2E" stroke-width="10" stroke-linecap="round" stroke-linejoin="round"/>
    <path d="M 359 81 L 359 79 L 361 77 L 364 76 L 362 77 L 360 78 L 363 77 L 364 76 L 367 75 L 369 74 L 371 73 L 373 72 L 371 73 L 369 74 L 367 75 L 369 74 L 371 73 L 373 72 L 376 72 L 379 71 L 382 69 L 384 69 L 382 70 L 379 71 L 376 72 L 379 71 L 382 69 L 384 69 L 386 68 L 390 67 L 386 68 L 390 67 L 390 69" fill="none" stroke="#2E2E2E" stroke-width="10" stroke-linecap="round" stroke-linejoin="round"/>
    <path d="M 372 73 L 371 75 L 371 79 L 371 77 L 371 75 L 371 77 L 371 81 L 372 84 L 373 86 L 373 88 L 374 90 L 375 92 L 374 89 L 373 87 L 372 84 L 371 81 L 372 84 L 373 86 L 373 88 L 374 90 L 375 92 L 376 96 L 376 98 L 377 100 L 379 103 L 380 105 L 378 102 L 377 99 L 376 96 L 376 98 L 377 100 L 379 103 L 380 105 L 381 107 L 382 109 L 385 110 L 383 109 L 381 107 L 382 109 L 385 110 L 388 110 L 391 108 L 388 109 L 386 110 L 390 109 L 392 107 L 395 104 L 396 103 L 394 105 L 392 107 L 395 104 L 396 103 L 398 100 L 400 98 L 398 100 L 400 98 L 402 96 L 405 95 L 402 96 L 405 95 L 407 94 L 408 94" fill="none" stroke="#2E2E2E" stroke-width="10" stroke-linecap="round" stroke-linejoin="round"/>
    <path d="M 416 57 L 414 58 L 414 62 L 415 65 L 414 62 L 414 58 L 414 62 L 415 65 L 416 67 L 416 69 L 417 71 L 418 73 L 418 75 L 419 77 L 420 80 L 420 82 L 419 79 L 418 75 L 417 72 L 416 69 L 417 71 L 418 73 L 418 75 L 419 77 L 420 80 L 420 82 L 422 85 L 423 89 L 424 92 L 425 94 L 424 91 L 423 88 L 422 85 L 423 89 L 424 92 L 425 94 L 427 96 L 428 98 L 426 95 L 427 97 L 429 99" fill="none" stroke="#2E2E2E" stroke-width="10" stroke-linecap="round" stroke-linejoin="round"/>
    <path d="M 423 76 L 424 74 L 426 73 L 428 72 L 425 74 L 428 72 L 432 71 L 434 69 L 437 68 L 439 67 L 437 68 L 434 69 L 432 71 L 434 69 L 437 68 L 439 67 L 441 66 L 443 65 L 441 66 L 443 65" fill="none" stroke="#2E2E2E" stroke-width="10" stroke-linecap="round" stroke-linejoin="round"/>
    <path d="M 416 112 L 414 114 L 412 117 L 413 120 L 414 122 L 413 120 L 412 117 L 413 120 L 414 122 L 415 125 L 416 128 L 418 132 L 419 135 L 418 132 L 417 130 L 416 127 L 415 125 L 416 128 L 418 132 L 419 135 L 420 138 L 422 140 L 423 143 L 425 144 L 423 142 L 422 140 L 420 138 L 422 140 L 423 143 L 425 144 L 426 146 L 429 147 L 426 146 L 429 147 L 431 147 L 434 147 L 431 147 L 434 147 L 435 146 L 438 144 L 435 146 L 438 144 L 441 142 L 443 140 L 441 142 L 443 140 L 446 139 L 448 136 L 446 139 L 448 136 L 450 135 L 451 134 L 450 135 L 451 134 L 453 132 L 453 130 L 453 127 L 453 130 L 453 127 L 452 124 L 450 121 L 451 123 L 453 126 L 451 123 L 450 121 L 450 119 L 448 115 L 447 113 L 449 116 L 450 119 L 448 115 L 447 113 L 446 111 L 445 107 L 446 111 L 445 107 L 444 105 L 444 105" fill="none" stroke="#2E2E2E" stroke-width="10" stroke-linecap="round" stroke-linejoin="round"/>
    <path d="M 426 133 L 429 132 L 430 131 L 432 130 L 429 131 L 427 132 L 430 131 L 432 130 L 434 128 L 437 127 L 439 125 L 442 123 L 439 125 L 437 127 L 434 128 L 437 127 L 439 125 L 442 123" fill="none" stroke="#2E2E2E" stroke-width="10" stroke-linecap="round" stroke-linejoin="round"/>
    <path d="M 476 68 L 474 69 L 473 72 L 473 69 L 473 72 L 473 75 L 474 79 L 473 75 L 474 79 L 476 83 L 477 85 L 476 83 L 477 85" fill="none" stroke="#2E2E2E" stroke-width="10" stroke-linecap="round" stroke-linejoin="round"/>
    <path d="M 468 91 L 469 89 L 471 88 L 468 89 L 471 88 L 475 86 L 478 85 L 481 84 L 478 85 L 475 86 L 473 87 L 475 86 L 478 85 L 481 84 L 484 82 L 487 80 L 490 79 L 493 78 L 490 79 L 487 81 L 484 82 L 487 80 L 490 79 L 493 78 L 494 77 L 496 77" fill="none" stroke="#2E2E2E" stroke-width="10" stroke-linecap="round" stroke-linejoin="round"/>
    <path d="M 484 116 L 484 120 L 485 123 L 487 124 L 489 126 L 492 126 L 488 125 L 490 126 L 493 126 L 496 124 L 493 126 L 496 124 L 497 122 L 498 120 L 499 118 L 500 115 L 499 118 L 497 122 L 498 120 L 499 118 L 500 115 L 500 113 L 501 109 L 500 113 L 501 109 L 501 106 L 500 104 L 501 106 L 500 104 L 498 102 L 496 101 L 498 102 L 496 101 L 493 101 L 490 101 L 493 101 L 490 101 L 488 103 L 485 105 L 488 103 L 485 105 L 484 108 L 484 111 L 484 108 L 484 111" fill="none" stroke="#2E2E2E" stroke-width="10" stroke-linecap="round" stroke-linejoin="round"/>
    <path d="M 511 67 L 508 68 L 508 70 L 509 75 L 509 72 L 508 69 L 508 72 L 509 75 L 509 77 L 509 79 L 510 81 L 511 83 L 511 85 L 512 88 L 513 90 L 513 92 L 513 90 L 512 87 L 511 84 L 510 81 L 509 79 L 510 81 L 511 83 L 511 85 L 512 88 L 513 90 L 513 92 L 514 95 L 515 97 L 516 99 L 517 101 L 518 105 L 517 102 L 516 100 L 515 97 L 516 99 L 517 101 L 518 105 L 519 107 L 520 109 L 521 111 L 523 113 L 521 110 L 519 107 L 520 109 L 521 111 L 523 113 L 524 114" fill="none" stroke="#2E2E2E" stroke-width="10" stroke-linecap="round" stroke-linejoin="round"/>
    <path d="M 520 96 L 522 95 L 524 95 L 528 93 L 524 95 L 528 93 L 531 92 L 533 91 L 535 89 L 533 91 L 531 92 L 533 91 L 535 89 L 537 87 L 537 87" fill="none" stroke="#2E2E2E" stroke-width="10" stroke-linecap="round" stroke-linejoin="round"/>
    <path d="M 535 68 L 534 66 L 535 69 L 536 73 L 537 75 L 537 78 L 538 80 L 537 77 L 536 74 L 535 71 L 534 68 L 535 71 L 536 73 L 537 75 L 537 78 L 538 80 L 539 83 L 540 86 L 541 89 L 541 92 L 542 95 L 543 97 L 544 99 L 545 102 L 545 104 L 546 107 L 545 104 L 544 101 L 543 98 L 542 95 L 542 92 L 541 89 L 540 86 L 541 89 L 541 92 L 542 95 L 543 97 L 544 99 L 545 102 L 545 104 L 546 107 L 547 110 L 548 113 L 549 116 L 550 118 L 551 120 L 552 123 L 554 126 L 552 123 L 551 121 L 550 118 L 549 116 L 548 113 L 549 116 L 550 118 L 551 120 L 552 123 L 554 126 L 556 129 L 558 131 L 559 134 L 558 131 L 556 129 L 558 131 L 559 134 L 560 135 L 560 136" fill="none" stroke="#2E2E2E" stroke-width="10" stroke-linecap="round" stroke-linejoin="round"/>
  </g>
</svg>