<svg width="69" height="69" viewBox="0 0 69 69" fill="none" xmlns="http://www.w3.org/2000/svg">
<path d="M14.0715 34.8454C14.1391 34.7095 14.5919 34.3468 15.1284 34.1402C15.4918 34.0003 15.9128 33.7089 16.3807 33.5026C16.5588 33.4241 17.5459 33.0512 19.0017 32.3121C20.3071 31.6495 20.8086 31.3853 21.2526 31.0786C21.6871 30.7785 22.0844 30.7931 22.2323 30.7139C22.5599 30.5384 22.5407 29.66 22.484 29.0983C22.4393 28.6549 22.4041 27.4785 22.2907 26.4257C22.1197 24.8377 22.1992 24.0594 22.2559 23.4751C22.3099 22.9183 22.3809 22.4626 22.5513 22.0859C22.7141 21.7259 22.9041 21.3015 23.1318 20.8456C23.3446 20.4197 23.4955 19.8904 23.7124 19.4338C23.878 19.0851 24.1553 18.7962 24.7355 18.2279C25.1005 17.8705 25.3396 17.5217 25.5794 17.157C25.6332 17.0752 25.6142 16.9753 25.5691 16.9514C25.2818 16.7991 24.9558 17.3141 24.5911 17.4056C24.1216 17.5234 23.863 17.9069 23.5099 18.077C22.9813 18.3316 22.5653 18.3386 22.3249 18.5667C22.1195 18.7615 22.8576 18.1583 23.2223 17.908C23.3167 17.8432 23.404 17.7717 23.4054 17.7819C23.4531 18.1396 22.8836 18.3154 21.9639 18.8611C21.4683 19.1552 21.0627 19.2033 20.7659 19.5335C20.4899 19.8406 20.0832 20.0229 19.753 20.319C19.3672 20.6649 19.1953 21.1157 18.9331 21.4572C18.69 21.7737 18.3757 22.0036 18.1135 22.4697C17.8508 22.9367 17.7597 23.4597 17.5671 23.791C17.3589 24.1491 17.078 24.5075 16.9404 24.8722C16.8055 25.2296 16.645 25.6003 16.3947 26.0104C16.1902 26.3456 16.1205 26.7382 15.9845 27.1599C15.7947 27.7489 15.7571 28.3091 15.5293 28.6403C15.2978 28.977 15.3924 29.5385 15.3012 29.9264C15.1857 30.4177 15.1875 31.0643 15.1076 31.5984C14.967 32.5379 14.8911 32.8408 14.9136 32.9665C14.9716 33.2898 15.5946 32.5013 15.9938 32.3077C16.5207 32.0521 17.1422 31.6599 17.7231 31.3744C18.3577 31.0625 18.7596 30.9755 19.4757 30.7484C20.0118 30.5784 20.3305 30.3376 20.6385 30.0883C20.7206 30.0219 20.8086 29.9742 20.8889 29.9172C21.7996 29.27 21.1965 26.7204 21.2997 26.1962C21.4495 25.4345 21.4479 24.7848 21.5271 23.9894C21.6453 22.8033 21.6979 22.076 21.8116 21.6648C21.9236 21.2598 22.4027 21.1184 22.6425 20.8336C22.6986 20.7669 22.6773 20.6635 22.6322 20.6171C22.5871 20.5706 22.497 20.5706 22.4167 20.6045C22.0702 20.7504 21.8358 21.0925 21.5176 21.31C21.2098 21.5203 20.9479 21.7755 19.9043 23.1599C19.0608 24.2788 18.6722 24.7807 18.3754 25.2584C17.9977 25.8665 17.9195 26.3284 17.7491 26.841C17.5834 27.3394 17.328 27.8528 17.1911 28.3326C17.0901 28.6864 16.9182 29.0153 16.6904 29.6068C16.539 29.9999 16.576 30.2911 16.587 30.439C16.5919 30.5055 16.7106 30.5193 16.7908 30.4971C17.1561 30.396 17.4387 29.839 17.7925 29.4623C18.1866 29.0427 18.9399 28.9729 19.5789 28.8807C19.8355 28.8437 20.0805 28.7667 20.2967 28.7103C20.3921 28.6855 20.4002 28.5413 20.4118 28.4382C20.4658 27.9586 19.9234 27.3802 19.7636 26.9922C19.5885 26.5671 20.1037 25.991 20.2639 25.7727C20.6727 25.2157 19.7417 26.9881 19.6383 27.3993C19.5326 27.8192 19.3087 28.1055 19.1609 28.1858C18.7694 28.3982 19.3292 27.0619 19.7612 26.3222C20.1849 25.5967 20.6256 25.1044 20.9233 24.4323C21.105 24.0225 21.2423 23.6681 21.356 23.5537C21.3885 23.5209 21.4247 23.6647 21.4137 23.7678C21.3697 24.1835 21.1078 24.5758 20.5173 25.6303C19.4913 27.4627 19.4685 28.2613 19.4214 28.6752C19.3674 29.1494 19.9678 27.7203 20.6218 26.5582C21.2319 25.474 22.4929 23.4352 23.2667 22.1982C24.578 20.1023 24.7714 19.8658 24.8284 19.7855C24.8997 19.6852 24.6143 20.475 24.2847 21.2482C23.6805 22.6657 22.8836 24.2793 22.7347 24.8374C22.6752 25.0601 22.5639 25.2369 22.4956 25.3284C22.3176 25.567 22.8125 24.625 23.3808 24.0451C23.6742 23.7456 24.2202 22.6511 25.0282 21.297C25.526 20.4628 25.6593 19.8904 25.9205 19.2412C26.1362 18.7052 26.5458 18.1146 26.9105 17.6921C27.0947 17.4788 27.2753 17.2929 27.3668 17.1905C27.594 16.9361 26.4816 17.3605 26.1852 17.3155C26.102 17.3028 26.2043 17.1802 26.2958 17.1112C26.6379 16.8534 27.1373 16.7923 27.4235 16.5307C27.6843 16.2922 27.9118 15.9276 28.3332 15.5632C28.4951 15.4232 28.687 15.3805 28.8346 15.2893C29.1373 15.1022 29.551 15.4249 29.9724 15.5502C30.346 15.6613 30.6445 15.2664 30.804 15.2432C30.8551 15.2358 30.8282 15.3552 30.7716 15.4468C30.5126 15.8648 30.0783 16.265 29.0685 17.2304C27.5395 18.6922 27.2548 19.1801 26.9922 19.3754C26.6379 19.6389 27.4569 18.6596 28.0802 18.3301C29.872 17.3826 30.7545 17.1584 31.2818 16.9398C31.372 16.9024 31.4634 16.8606 31.4648 16.8712C31.511 17.2295 30.8296 17.4275 30.4762 17.5876C30.1393 17.7403 29.76 18.064 29.3724 18.497C29.0629 18.8429 28.7567 19.1124 28.35 19.5762C26.7292 21.4243 26.0937 21.8888 25.7522 22.2768C25.4204 22.6537 25.0705 23.2535 24.8294 23.8129C24.5131 24.5467 24.0228 25.1222 23.8729 25.4756C23.7113 25.8565 23.43 26.2382 23.2469 26.6022C23.0208 27.052 23.1554 27.693 23.042 28.3084C22.9967 28.5546 23.0188 28.9634 23.1202 29.1724C23.2216 29.3814 23.4245 29.3814 23.5628 29.3476C23.9646 29.2494 24.2004 28.768 24.6338 28.5512C24.968 28.3839 25.4967 28.2216 25.9543 28.1407C26.1363 28.1085 26.3191 28.0611 26.4219 28.0721C26.4574 28.0758 26.3669 28.1957 26.2757 28.2534C25.9131 28.4829 25.4571 28.3801 25.0579 28.4703C24.6585 28.5604 24.2509 28.7885 23.7831 29.0955C23.6738 29.1672 23.5898 29.2434 23.5884 29.3008C23.5871 29.3582 23.6772 29.4032 23.7687 29.4265C24.1032 29.5113 24.4285 29.1997 24.7932 29.1085C25.2005 29.0067 25.6579 28.9265 26.0226 28.8353C26.4004 28.7409 26.8409 28.2913 27.252 28.084C27.5877 27.9148 28.2506 27.9471 28.6983 27.834C29.0966 27.7335 28.5293 26.9704 28.4603 26.5824C28.3782 26.1207 28.3011 25.5812 28.2666 24.8763C28.2542 24.623 28.2096 23.36 28.2434 21.5391C28.2613 20.5751 28.573 20.1404 28.88 19.8658C28.9585 19.7955 29.0279 19.7073 29.0176 19.6609C29.0074 19.6144 28.9172 19.6144 28.837 19.6482C28.4219 19.8231 28.211 20.4778 27.7909 21.0904C26.6008 22.8263 26.2071 23.5963 25.9229 24.0973C25.4896 24.8613 25.0241 25.4172 24.7499 26.0552C24.584 26.4411 24.4531 26.6938 24.4982 26.8532C24.5849 27.1602 25.27 26.6507 25.6811 26.5131C26.0907 26.376 26.4782 26.2396 26.6602 26.1945C27.1996 26.0609 26.8655 24.7397 26.9344 24.3173C26.9514 24.2134 27.0021 24.1018 27.0253 24.224C27.026 25.1686 26.9802 25.7348 26.9689 26.3605C26.9577 26.6029 26.9351 26.6931 26.9119 26.8543" stroke="#9E0505" stroke-width="2" stroke-linecap="round"/>
<path d="M31.5905 15.0383C31.9518 15.0383 32.727 15.1285 33.9079 15.1862C34.7081 15.2253 35.3006 15.2658 35.3808 15.2774C36.1369 15.3868 33.3909 15.22 33.0374 15.3904C32.7021 15.5521 32.7065 15.9481 32.6833 16.0509C32.6061 16.3923 33.4551 15.7678 34.7067 15.7213C35.2612 15.7007 33.481 15.7664 33.2994 15.8685C32.8685 16.1106 32.4579 16.5396 32.002 16.8018C31.8911 16.8657 31.7749 16.9043 31.7732 16.8824C31.737 16.4187 32.5672 16.2459 33.1023 16.1315C33.8943 15.9622 34.776 16.0177 35.5942 15.9833C36.3913 15.9497 37.4397 15.9713 37.8837 16.1079C38.3392 16.2481 38.6691 16.5163 39.0338 16.7451C39.2059 16.8531 39.3986 16.9275 39.4901 16.9845C39.7303 17.1342 38.8549 16.7691 38.5469 16.5532C38.1814 16.2971 37.6931 16.4269 37.59 16.4836C37.2208 16.6865 38.3276 16.9494 38.7945 17.393C39.1181 17.7005 39.6253 17.7239 40.0126 17.8946C40.5698 18.1403 40.8097 18.452 41.1399 18.6121C41.5099 18.7916 41.6757 19.2484 41.8915 19.7265C42.0746 20.1319 42.289 20.501 42.4837 20.8541C42.5229 20.9252 42.6305 20.9121 42.677 20.9572C42.9255 21.1985 42.9966 21.6389 43.2005 21.9469C43.2586 22.0347 43.3368 22.117 43.3603 22.1183C43.6249 22.1337 43.0882 21.5064 42.8723 21.1526C42.6042 20.713 42.3382 20.0516 42.0527 19.5817C41.7802 19.1332 41.563 18.8638 41.4493 18.8064C41.4071 18.7852 41.3806 18.9069 41.324 18.9082C40.9304 18.9177 40.8575 18.273 40.4938 17.9196C40.1872 17.6216 39.8794 17.3387 39.5826 17.0204C39.2839 16.7 38.9464 16.4508 38.4905 16.1438C38.0702 15.8607 37.6938 15.6995 37.0344 15.415C36.5789 15.2185 36.1912 15.0629 35.7585 14.8228C35.3171 14.5779 34.8935 14.4701 34.5288 14.3557C33.8122 14.1309 32.7297 14.3096 32.6382 14.4001C32.5899 14.4479 32.727 14.5807 32.8411 14.6388C33.2936 14.8691 34.1572 14.7651 35.2271 14.6517C37.8133 14.3777 38.3263 14.7651 38.7606 14.8331C39.1537 14.8946 39.557 14.97 39.9218 15.038C40.0145 15.0553 40.1034 15.0834 40.1161 15.0499C40.1639 14.9234 39.9013 14.7883 39.7196 14.7426C39.5382 14.6969 39.3549 14.856 39.207 14.845C39.1405 14.8401 39.1267 14.7214 39.1602 14.6862C39.6047 14.2191 40.8547 14.787 41.1293 14.9127C41.1604 14.9269 41.0405 14.9919 40.9265 14.9926C40.407 14.9957 39.8808 14.7651 39.3446 14.6517C38.7466 14.5253 38.3768 14.3335 37.842 14.1057C37.7183 14.053 37.6255 14.037 37.5565 14.0705C37.4875 14.104 37.4425 14.1941 37.4643 14.2518C37.5885 14.5797 38.1459 14.6272 38.5441 14.8102C38.9158 14.9811 39.3972 15.0834 39.7964 15.2651C40.4059 15.5424 40.8097 16.2431 41.1512 16.7325C41.4905 17.2188 41.8342 17.6091 42.0285 17.9739C42.2021 18.2998 41.9728 18.5893 41.938 18.7368C41.8241 19.2191 42.8573 19.0448 43.3361 19.2152C44.0473 19.4683 44.5648 19.4546 45.146 19.6025C45.273 19.6348 45.3626 19.6595 45.4203 19.7387C45.478 19.818 45.5005 19.9532 45.4783 20.0792C45.3932 20.5625 44.8203 20.9996 44.3869 21.5818C44.2155 21.8121 44.045 22.0493 43.9081 22.1525C43.5359 22.4328 44.5197 21.0979 44.7718 20.629C44.8825 20.4231 44.909 20.1622 44.864 19.901C44.7731 19.3745 44.2957 19.1377 44.1468 18.7282C44.106 18.616 44.0676 18.5011 43.9655 18.4431C43.8634 18.385 43.7056 18.385 43.5905 18.4301C43.4754 18.4752 43.4078 18.5653 43.3955 18.6569C43.3366 19.0956 44.0198 19.4983 44.1574 19.9201C44.3451 20.4954 44.1127 21.1143 43.9761 21.4807C43.872 21.76 44.338 20.7332 44.8845 19.4714C45.2067 18.7271 44.5238 18.023 44.2725 17.6122C44.028 17.2125 43.2261 17.407 42.8952 17.0774C42.7323 16.9152 42.7917 16.4077 42.7354 15.8955C42.7154 15.7135 42.5663 15.7213 42.4632 15.7439C42.2632 15.7876 42.0869 15.8805 41.9165 15.8808C41.8332 15.881 41.7686 15.791 41.7676 15.6998C41.7652 15.4853 42.0165 15.2671 42.2324 15.0964C42.3252 15.0229 42.4256 15.0383 42.5172 15.0721C42.9085 15.2167 43.1319 15.6284 43.4279 15.9477C43.8223 16.3731 44.0437 16.6311 44.1229 16.7677C44.3088 17.0881 44.9295 17.0641 45.2386 17.1669C45.5273 17.2629 44.6153 16.6789 44.3408 16.3599C44.2134 16.212 44.0444 16.1093 44.0211 15.9614C44.0116 15.9004 44.1331 15.8811 44.2247 15.8921C44.6153 15.9387 44.9077 16.3114 45.2266 16.6874C45.5316 17.0469 45.8857 17.3141 46.217 17.5982C46.6707 17.9874 46.7969 18.5203 47.0369 18.8505C47.0948 18.9301 47.1616 18.9984 47.1513 18.9543C47.037 18.4628 46.6179 18.1596 46.0722 17.5449C45.887 17.3364 45.7751 17.1789 45.5934 17.0767C45.4994 17.0239 45.4117 16.9521 45.4667 17.1201C45.9083 18.4695 46.7518 19.0885 47.1274 19.5332C47.2119 19.6331 47.2531 19.7265 47.22 19.7842C47.0265 20.1212 46.2108 20.0229 45.73 20.3306C45.3907 20.5477 45.0921 20.8193 44.7963 21.1953C44.5121 21.5567 44.3859 21.9121 44.1362 22.4014C43.9936 22.6811 43.7937 22.8464 43.7145 22.9717C43.6788 23.0281 43.5676 22.9844 43.4761 22.9277C43.2775 22.8047 43.1565 22.5978 43.122 22.5175C43.0645 22.3839 43.36 22.8013 43.5079 22.9147C43.8082 23.145 43.7015 23.6879 43.8497 24.1434C43.8832 24.2464 43.9965 24.2807 44.0881 24.2814C44.5568 24.2849 45.0661 23.8723 46.8146 23.8603C47.2762 23.8572 47.5031 24.1428 47.946 24.3155C48.7646 24.6349 49.1874 24.4405 49.5408 24.4976C49.9431 24.5625 50.2802 24.8736 50.6336 24.8507C50.8063 24.8395 51.0315 24.92 51.3962 24.9303C51.5782 24.9354 51.7609 25.0095 51.9313 25.157C52.017 25.2311 52.0792 25.3271 52.0352 25.3397C51.5759 25.4714 51.2173 24.9665 50.8525 24.6584C50.4765 24.3408 49.9892 24.0102 49.4189 23.7589C48.8956 23.5283 48.3732 23.2589 47.9156 23.1322C47.1852 22.93 46.0729 22.5746 45.5374 22.3253C45.0513 22.099 44.8414 21.6416 44.7615 21.4599C44.7243 21.3754 44.7943 21.2782 44.9415 21.2318C45.7127 20.9884 46.3406 21.3438 47.6134 22.0931C48.1967 22.4364 48.5276 22.6866 49.2659 23.1415C49.5497 23.3163 49.7119 23.4618 49.8485 23.4509C50.4229 23.4049 48.6942 21.4886 48.1659 20.9019C47.8151 20.5123 47.4157 20.2756 47.0164 20.0478C46.9186 19.992 46.801 19.9792 46.788 19.9337C46.775 19.8883 46.8652 19.8207 46.968 19.7971C47.4059 19.6967 48.0468 20.1813 48.7991 20.7387C49.8433 21.5122 49.9394 21.981 50.1326 22.1067C50.2011 22.1512 50.2583 22.0295 50.2365 21.8817C50.1321 21.1756 49.4428 20.8234 48.9405 20.458C48.5106 20.1453 48.1205 19.8207 47.7452 19.4338C47.3261 19.0017 46.9362 18.8426 46.6859 18.5001C46.4187 18.1346 46.0264 18.0217 45.6388 17.6467C45.5495 17.5603 45.547 17.4534 45.5354 17.3619C45.5237 17.2704 45.5237 17.1802 45.6364 17.1338C45.952 17.0037 46.2293 16.9972 46.3085 16.8831C46.5344 16.558 46.9799 17.4725 47.2415 18.0186C47.4772 18.5107 47.8897 18.635 48.2544 18.7375C48.6439 18.8469 48.824 19.3167 49.0064 19.6926C49.2032 20.0985 49.257 20.5228 49.3479 20.9224C49.3676 21.0093 49.5507 20.9804 49.6542 21.0593C49.8253 21.296 49.9626 21.6163 50.0876 21.9005C50.1449 22.0268 50.19 22.117 50.3048 22.2782" stroke="#9E0505" stroke-width="2" stroke-linecap="round"/>
<path d="M48.6066 19.969C48.7098 20.055 48.849 20.1767 49.2201 20.565C49.5116 20.8699 49.987 21.4177 50.3383 21.8474C50.6897 22.277 50.8961 22.5781 51.0541 22.7891C51.3029 23.1215 51.6108 23.5024 51.9405 23.9667C52.3303 24.5156 52.6372 24.8426 52.7548 24.9773C52.8637 25.1468 52.9328 25.3373 53.0848 25.6241C53.1241 25.6856 53.1585 25.72 53.194 25.7815" stroke="#9E0505" stroke-width="2" stroke-linecap="round"/>
<path d="M50.3855 20.5685C50.3855 20.5857 50.3855 20.6029 50.5919 20.8913C50.7984 21.1797 51.2112 21.7388 51.4411 22.0441C51.671 22.3493 51.7054 22.3837 51.7016 22.3713C51.6764 22.2887 51.4471 21.9614 51.1178 21.4541C50.6481 20.7306 50.3427 20.6644 50.1256 20.4564C49.9789 20.3159 49.934 20.0743 49.8904 19.9302C49.8805 19.8975 50.0018 20.2273 50.52 21.0007C50.8882 21.5502 51.5198 22.3847 51.8561 22.8491C52.301 23.4636 52.3659 23.6348 52.4875 23.8518C52.6324 24.1104 52.7485 24.2343 52.7964 24.3778C52.9051 24.7039 52.9743 25.2248 53.0179 25.3856C53.0651 25.5592 53.2344 25.7461 53.3132 25.8896C53.4002 26.0505 53.4523 26.1548 53.4784 26.2241C53.4872 26.259 53.4872 26.2934 53.4872 26.3289" stroke="#9E0505" stroke-width="2" stroke-linecap="round"/>
<path d="M13.0741 34.879C12.9723 34.9129 12.716 35.0662 12.1102 35.5097C10.335 36.8093 9.92031 37.1921 9.696 37.3742C9.36982 37.6391 10.2949 36.6642 10.7314 36.1927C11.0702 35.8267 11.3578 35.6003 11.6325 35.4454C11.9001 35.2946 12.181 35.2051 12.4045 35.0256C12.6565 34.8232 12.8159 34.5713 13.0391 34.3313C13.1022 34.2635 13.0741 34.1268 13.0317 34.091C12.7149 33.8242 12.2695 34.7236 11.8839 34.9381C11.3541 35.2329 10.9318 35.6157 10.7167 35.8555C10.4878 36.1107 10.2969 36.4554 10.0397 36.9179C9.81703 37.3182 9.57664 37.5018 9.33637 37.7591C9.18151 38.0338 9.09559 38.2396 9.06138 38.3849C9.04414 38.4624 9.02716 38.5473 8.95822 38.7891" stroke="#9E0505" stroke-width="2" stroke-linecap="round"/>
<circle cx="34.5" cy="34.5" r="33" stroke="#9E0505" stroke-width="3"/>
<circle cx="34.5" cy="34.5" r="29.4" stroke="#9E0505"/>
<path d="M42.5 39.5C42 39.5 36 40 35.5 40.5C35 41 37 46.5 40 46C42.4 45.6 43 39.5 42.5 39.5Z" stroke="#9E0505"/>
<path d="M31 34.5C31.7301 34.5 32.5 35.2855 32.5 36.5C32.5 37.7145 31.7301 38.5 31 38.5C30.2699 38.5 29.5 37.7145 29.5 36.5C29.5 35.2855 30.2699 34.5 31 34.5Z" fill="#9E0505" stroke="#9E0505"/>
<circle cx="30.5" cy="35.5" r="0.5" fill="#C7C7C7"/>
<path d="M45 32.5C45.7301 32.5 46.5 33.2855 46.5 34.5C46.5 35.7145 45.7301 36.5 45 36.5C44.2699 36.5 43.5 35.7145 43.5 34.5C43.5 33.2855 44.2699 32.5 45 32.5Z" fill="#9E0505" stroke="#9E0505"/>
<circle cx="44.5" cy="33.5" r="0.5" fill="#C7C7C7"/>
<mask id="path-13-inside-1_400_2" fill="white">
<ellipse cx="39.039" cy="37.6743" rx="1" ry="0.607881" transform="rotate(-3.89296 39.039 37.6743)"/>
</mask>
<ellipse cx="39.039" cy="37.6743" rx="1" ry="0.607881" transform="rotate(-3.89296 39.039 37.6743)" fill="black"/>
<path d="M40.0367 37.6064L39.039 37.6743C39.0289 37.5263 39.0726 37.4072 39.1166 37.3337C39.1572 37.2659 39.1956 37.2392 39.1974 37.2379C39.2011 37.2353 39.1873 37.2454 39.1511 37.2574C39.1162 37.2689 39.0691 37.2793 39.0123 37.2831L39.0802 38.2808L39.1481 39.2785C39.5757 39.2494 40.0037 39.1165 40.3499 38.8724C40.6789 38.6405 41.0785 38.1877 41.0343 37.5385L40.0367 37.6064ZM39.0802 38.2808L39.0123 37.2831C38.9556 37.287 38.9075 37.2831 38.8713 37.2764C38.8339 37.2695 38.8189 37.2613 38.8229 37.2634C38.8249 37.2644 38.8665 37.2857 38.9159 37.3474C38.9695 37.4142 39.0289 37.5263 39.039 37.6743L38.0413 37.7422L37.0436 37.8101C37.0878 38.4593 37.5451 38.8537 37.9024 39.039C38.2785 39.2339 38.7206 39.3076 39.1481 39.2785L39.0802 38.2808ZM38.0413 37.7422L39.039 37.6743C39.049 37.8223 39.0054 37.9415 38.9613 38.0149C38.9207 38.0827 38.8824 38.1095 38.8806 38.1108C38.8768 38.1134 38.8907 38.1032 38.9268 38.0913C38.9617 38.0797 39.0088 38.0694 39.0656 38.0655L38.9977 37.0678L38.9298 36.0702C38.5023 36.0993 38.0742 36.2322 37.728 36.4762C37.3991 36.7082 36.9994 37.1609 37.0436 37.8101L38.0413 37.7422ZM38.9977 37.0678L39.0656 38.0655C39.1223 38.0617 39.1705 38.0655 39.2066 38.0723C39.244 38.0792 39.2591 38.0874 39.255 38.0853C39.2531 38.0843 39.2115 38.0629 39.162 38.0013C39.1084 37.9344 39.049 37.8223 39.039 37.6743L40.0367 37.6064L41.0343 37.5385C40.9902 36.8894 40.5329 36.4949 40.1755 36.3097C39.7995 36.1148 39.3573 36.0411 38.9298 36.0702L38.9977 37.0678Z" fill="#9E0505" mask="url(#path-13-inside-1_400_2)"/>
<path d="M30 28.5C28.8333 25.5 27.9 19.1 33.5 17.5C39.1 15.9 42.1667 22.1666 43 25.5" stroke="#9E0505"/>
<path d="M40.5 26C41.1667 25 41.8 22.9 39 22.5C36.2 22.1 31.5 23.6667 29.5 24.5" stroke="#9E0505"/>
<path d="M27 15C24.6667 17 20.7 23 23.5 31" stroke="#9E0505"/>
<path d="M13.5 36C11.8333 36.8333 8.6 38.9 9 40.5" stroke="#9E0505"/>
<path d="M31.5 53.4999C14.3 54.2999 12.6667 42.4999 14 36.4999C12 35.4999 45 19 54.5 27.9999C60.5 33.6841 59 42.6666 57 44.9999C55.6667 47.4999 48.7 52.6999 31.5 53.4999Z" stroke="#9E0505"/>
<path d="M54.5 28C53.3333 21.6666 47.5243 10.9959 32.5 13.5C17.5 16 14.5 24.9999 14 32.4999M14 32.4999C11.8333 33.6666 7.60001 36.6 8.00001 39C8.40001 41.4 11.6667 42 13.5 42V36.5L14 32.4999Z" stroke="#9E0505"/>
<circle cx="32.5" cy="25.5" r="0.5" fill="#9E0505"/>
<circle cx="35.5" cy="24.5" r="0.5" fill="#9E0505"/>
<circle cx="38.5" cy="24.5" r="0.5" fill="#9E0505"/>
</svg>
